<svg width="4441" height="900" viewBox="0 0 4441 900" fill="none" xmlns="http://www.w3.org/2000/svg">
<g clip-path="url(#clip0_45_2771)">
<rect width="2522.87" height="900" fill="#06398A"/>
<path d="M530.87 103.581C617.153 103.581 687.099 173.527 687.099 259.81C687.098 346.092 617.152 416.037 530.87 416.037H231.433V330.484H497.393C536.425 330.484 568.067 298.842 568.067 259.81C568.067 220.777 536.425 189.135 497.393 189.135H231.433V103.581H530.87Z" fill="white"/>
<rect x="131" y="103.581" width="130.19" height="691.868" fill="white"/>
<path d="M552.641 384.675C666.279 384.675 758.4 476.796 758.4 590.435C758.4 686.518 692.542 767.217 603.505 789.858V578.611H261.189V796.195H232.193V384.675H552.641ZM261.189 578.61H603.505L543.317 490.432H321.377L261.189 578.61Z" fill="white"/>
<path d="M568.811 595.749H542.055L502.93 538.429H355.613L316.488 595.749H291.258L340.059 524.253H520.011L568.811 595.749Z" fill="white"/>
<path d="M568.811 794.83H291.258V595.75H568.811V794.83ZM371.6 671.562C371.6 704.166 397.79 730.796 430.339 730.796C462.888 730.796 489.079 704.167 489.079 671.562H466.761C466.761 692.059 450.345 708.477 430.339 708.478C410.333 708.477 393.918 692.059 393.918 671.562H371.6Z" fill="white"/>
<path d="M1010.8 517.996C1010.8 529.029 1008.76 538.984 1004.69 547.859C1000.73 556.614 995.271 564.05 988.315 570.167C981.358 576.283 973.503 580.721 964.748 583.479C970.744 585.518 975.842 589.356 980.039 594.993C984.237 600.63 987.655 606.926 990.293 613.882L1006.3 656.159C1008.94 663.235 1011.46 668.692 1013.86 672.529C1016.26 676.247 1019.08 679.486 1022.32 682.244C1019.8 685.962 1016.02 688.84 1010.98 690.879C1006.06 692.918 1001.21 693.938 996.41 693.938C989.214 693.938 983.937 691.959 980.579 688.001C977.221 684.043 974.103 678.166 971.224 670.371L953.414 621.798C950.416 613.522 946.398 606.566 941.361 600.929C936.324 595.293 928.168 592.474 916.894 592.474H871.74V562.791C877.137 562.551 883.253 562.311 890.089 562.071C896.926 561.831 903.642 561.651 910.238 561.531C916.954 561.411 922.651 561.351 927.329 561.351C939.082 561.351 948.137 559.193 954.493 554.875C960.85 550.557 965.227 545.1 967.626 538.504C970.025 531.788 971.224 524.952 971.224 517.996C971.224 510.68 970.025 503.724 967.626 497.127C965.227 490.411 960.85 484.954 954.493 480.756C948.137 476.559 939.082 474.46 927.329 474.46C923.851 474.46 919.773 474.46 915.095 474.46C910.538 474.46 905.801 474.46 900.883 474.46C896.086 474.34 891.648 474.22 887.571 474.1V691.419C884.572 691.899 881.334 692.258 877.856 692.498C874.498 692.738 871.26 692.858 868.142 692.858C865.503 692.858 862.385 692.738 858.787 692.498C855.309 692.258 852.19 691.899 849.432 691.419V447.655L851.771 445.496C865.323 445.256 878.576 445.016 891.529 444.776C904.481 444.417 917.074 444.237 929.307 444.237C945.978 444.237 960.37 447.055 972.483 452.692C984.717 458.329 994.131 466.604 1000.73 477.518C1007.44 488.432 1010.8 501.925 1010.8 517.996ZM1085.62 568.368C1085.62 579.281 1086.4 590.435 1087.96 601.829C1089.64 613.223 1092.63 623.717 1096.95 633.311C1101.27 642.906 1107.39 650.702 1115.3 656.698C1123.22 662.575 1133.47 665.513 1146.06 665.513C1158.66 665.513 1168.85 662.575 1176.65 656.698C1184.56 650.702 1190.62 642.906 1194.82 633.311C1199.13 623.717 1202.07 613.223 1203.63 601.829C1205.31 590.435 1206.15 579.281 1206.15 568.368C1206.15 557.454 1205.31 546.36 1203.63 535.086C1202.07 523.692 1199.13 513.198 1194.82 503.604C1190.62 494.009 1184.56 486.273 1176.65 480.397C1168.85 474.52 1158.66 471.581 1146.06 471.581C1133.47 471.581 1123.22 474.52 1115.3 480.397C1107.39 486.273 1101.27 494.009 1096.95 503.604C1092.63 513.198 1089.64 523.692 1087.96 535.086C1086.4 546.36 1085.62 557.454 1085.62 568.368ZM1045.5 568.368C1045.5 544.141 1049.1 522.433 1056.29 503.244C1063.61 484.054 1074.7 468.883 1089.58 457.729C1104.45 446.575 1123.28 440.998 1146.06 440.998C1163.21 440.998 1178.09 444.237 1190.68 450.713C1203.27 457.07 1213.71 466.065 1221.98 477.698C1230.26 489.212 1236.37 502.704 1240.33 518.175C1244.41 533.527 1246.45 550.258 1246.45 568.368C1246.45 592.714 1242.79 614.542 1235.47 633.851C1228.28 653.04 1217.24 668.212 1202.37 679.366C1187.62 690.519 1168.85 696.096 1146.06 696.096C1128.91 696.096 1113.98 692.858 1101.27 686.382C1088.68 679.905 1078.24 670.91 1069.97 659.397C1061.81 647.763 1055.69 634.211 1051.62 618.739C1047.54 603.268 1045.5 586.477 1045.5 568.368ZM1348.27 445.676C1351.27 445.196 1354.93 444.836 1359.25 444.596C1363.57 444.357 1367.34 444.237 1370.58 444.237C1373.46 444.237 1377.06 444.357 1381.38 444.596C1385.81 444.836 1389.35 445.256 1391.99 445.856L1472.76 689.08C1470.01 690.759 1466.59 691.959 1462.51 692.678C1458.55 693.518 1454.54 693.938 1450.46 693.938C1444.34 693.938 1439.6 692.558 1436.25 689.8C1433.01 687.041 1430.13 681.704 1427.61 673.789L1388.03 548.579C1384.67 538.024 1381.32 526.931 1377.96 515.297C1374.6 503.544 1371.6 492.93 1368.96 483.455H1366.98C1365.78 488.852 1364.35 494.729 1362.67 501.085C1360.99 507.441 1359.31 513.618 1357.63 519.615C1355.95 525.611 1354.45 530.828 1353.13 535.266L1303.3 691.779C1301.02 692.258 1298.44 692.618 1295.56 692.858C1292.69 693.098 1289.75 693.218 1286.75 693.218C1283.51 693.218 1280.21 692.978 1276.85 692.498C1273.62 692.019 1270.74 691.419 1268.22 690.699L1267.14 688.72L1348.27 445.676ZM1343.42 632.052C1342.34 632.052 1340.06 632.052 1336.58 632.052C1333.22 631.932 1329.8 631.872 1326.33 631.872C1322.85 631.752 1320.57 631.692 1319.49 631.692H1301.68L1313.55 600.57H1329.2C1330.28 600.57 1332.32 600.57 1335.32 600.57C1338.44 600.45 1341.5 600.39 1344.5 600.39C1347.49 600.27 1349.53 600.21 1350.61 600.21H1386.59C1387.79 600.21 1389.89 600.27 1392.89 600.39C1395.89 600.39 1398.95 600.45 1402.06 600.57C1405.3 600.57 1407.46 600.57 1408.54 600.57H1424.55L1434.81 631.692H1417.18C1416.1 631.692 1413.76 631.752 1410.16 631.872C1406.68 631.872 1403.2 631.932 1399.73 632.052C1396.25 632.052 1393.97 632.052 1392.89 632.052H1343.42ZM1694.7 568.547C1694.7 582.58 1693.74 596.012 1691.82 608.845C1690.02 621.678 1686.42 633.671 1681.03 644.825C1675.63 655.979 1667.47 665.993 1656.56 674.868C1651.4 679.186 1645.11 682.664 1637.67 685.302C1630.36 687.941 1622.8 689.92 1615 691.239C1607.33 692.438 1600.31 693.038 1593.96 693.038C1584.24 693.038 1575.37 692.978 1567.33 692.858C1559.29 692.738 1551.14 692.558 1542.86 692.318C1534.59 692.079 1525.23 691.839 1514.8 691.599L1512.46 689.44V447.655L1514.8 445.496C1525.23 445.136 1534.53 444.896 1542.68 444.776C1550.96 444.537 1559.11 444.417 1567.15 444.417C1575.31 444.297 1584.24 444.237 1593.96 444.237C1600.31 444.237 1607.33 444.896 1615 446.216C1622.8 447.415 1630.36 449.394 1637.67 452.152C1645.11 454.791 1651.4 458.269 1656.56 462.586C1667.35 471.462 1675.45 481.476 1680.85 492.63C1686.36 503.783 1690.02 515.777 1691.82 528.61C1693.74 541.323 1694.7 554.635 1694.7 568.547ZM1654.94 568.547C1654.94 557.873 1654.22 547.019 1652.78 535.986C1651.34 524.952 1648.53 514.877 1644.33 505.762C1640.13 496.528 1633.95 489.092 1625.8 483.455C1617.76 477.818 1607.09 475 1593.78 475C1586.22 475 1579.2 475 1572.73 475C1566.25 474.88 1558.88 474.76 1550.6 474.64V662.095C1558.88 662.095 1566.25 662.155 1572.73 662.275C1579.2 662.275 1586.22 662.275 1593.78 662.275C1607.09 662.275 1617.76 659.457 1625.8 653.82C1633.95 648.183 1640.13 640.747 1644.33 631.512C1648.53 622.277 1651.34 612.143 1652.78 601.109C1654.22 590.075 1654.94 579.221 1654.94 568.547ZM1724 447.655C1727.6 446.096 1731.14 444.956 1734.61 444.237C1738.21 443.517 1741.75 443.157 1745.23 443.157C1751.59 443.157 1756.26 444.656 1759.26 447.655C1762.26 450.653 1764.42 455.99 1765.74 463.666L1788.22 585.998C1789.3 592.114 1790.56 599.55 1792 608.305C1793.56 617.06 1795.06 625.696 1796.5 634.211C1797.94 642.726 1799.02 649.862 1799.74 655.619C1800.1 657.658 1800.46 658.857 1800.82 659.217C1801.3 659.577 1802.02 659.757 1802.98 659.757L1842.19 450.893C1845.91 450.173 1850.11 449.694 1854.79 449.454C1859.47 449.214 1863.54 449.094 1867.02 449.094C1870.86 449.094 1875.12 449.214 1879.79 449.454C1884.59 449.694 1888.55 450.173 1891.67 450.893L1927.65 655.619C1928.01 657.538 1928.43 658.737 1928.91 659.217C1929.39 659.577 1930.11 659.757 1931.07 659.757C1932.14 652.441 1933.4 644.225 1934.84 635.11C1936.4 625.995 1937.96 617.06 1939.52 608.305C1941.2 599.43 1942.64 591.874 1943.84 585.638L1971.54 445.676C1974.18 445.196 1977 444.836 1980 444.596C1983.12 444.357 1985.99 444.237 1988.63 444.237C1991.75 444.237 1994.93 444.417 1998.17 444.776C2001.41 445.136 2004.34 445.676 2006.98 446.395L2008.96 449.094L1957.51 691.059C1952.83 691.779 1947.2 692.258 1940.6 692.498C1934 692.858 1928.25 693.038 1923.33 693.038C1917.57 693.038 1912.54 692.019 1908.22 689.98C1903.9 687.821 1901.08 682.664 1899.76 674.508L1882.31 578.082C1880.27 566.209 1877.93 552.296 1875.3 536.345C1872.66 520.274 1870.14 504.563 1867.74 489.212H1865.4C1862.88 504.563 1860.18 520.214 1857.31 536.165C1854.55 551.997 1851.97 565.969 1849.57 578.082L1827.44 691.239C1822.89 691.839 1817.49 692.258 1811.25 692.498C1805.14 692.858 1799.62 693.038 1794.7 693.038C1788.7 693.038 1783.37 691.959 1778.69 689.8C1774.01 687.641 1770.83 682.484 1769.16 674.328L1724 447.655ZM2097.39 445.676C2100.39 445.196 2104.04 444.836 2108.36 444.596C2112.68 444.357 2116.46 444.237 2119.7 444.237C2122.57 444.237 2126.17 444.357 2130.49 444.596C2134.93 444.836 2138.47 445.256 2141.1 445.856L2221.88 689.08C2219.12 690.759 2215.7 691.959 2211.62 692.678C2207.67 693.518 2203.65 693.938 2199.57 693.938C2193.45 693.938 2188.72 692.558 2185.36 689.8C2182.12 687.041 2179.24 681.704 2176.72 673.789L2137.15 548.579C2133.79 538.024 2130.43 526.931 2127.07 515.297C2123.71 503.544 2120.72 492.93 2118.08 483.455H2116.1C2114.9 488.852 2113.46 494.729 2111.78 501.085C2110.1 507.441 2108.42 513.618 2106.74 519.615C2105.06 525.611 2103.56 530.828 2102.25 535.266L2052.41 691.779C2050.13 692.258 2047.56 692.618 2044.68 692.858C2041.8 693.098 2038.86 693.218 2035.86 693.218C2032.62 693.218 2029.33 692.978 2025.97 692.498C2022.73 692.019 2019.85 691.419 2017.33 690.699L2016.25 688.72L2097.39 445.676ZM2092.53 632.052C2091.45 632.052 2089.17 632.052 2085.69 632.052C2082.34 631.932 2078.92 631.872 2075.44 631.872C2071.96 631.752 2069.68 631.692 2068.6 631.692H2050.79L2062.67 600.57H2078.32C2079.4 600.57 2081.44 600.57 2084.44 600.57C2087.55 600.45 2090.61 600.39 2093.61 600.39C2096.61 600.27 2098.65 600.21 2099.73 600.21H2135.71C2136.91 600.21 2139 600.27 2142 600.39C2145 600.39 2148.06 600.45 2151.18 600.57C2154.42 600.57 2156.58 600.57 2157.65 600.57H2173.67L2183.92 631.692H2166.29C2165.21 631.692 2162.87 631.752 2159.27 631.872C2155.8 631.872 2152.32 631.932 2148.84 632.052C2145.36 632.052 2143.08 632.052 2142 632.052H2092.53ZM2281.99 589.416H2320.31V691.419C2317.31 691.899 2314.07 692.258 2310.59 692.498C2307.24 692.738 2304.06 692.858 2301.06 692.858C2298.3 692.858 2295.12 692.738 2291.53 692.498C2287.93 692.258 2284.75 691.899 2281.99 691.419V589.416ZM2352.33 445.676C2354.97 444.956 2357.67 444.537 2360.43 444.417C2363.19 444.177 2365.88 444.057 2368.52 444.057C2371.76 444.057 2375 444.297 2378.24 444.776C2381.48 445.136 2384.41 445.736 2387.05 446.575L2388.67 449.274L2317.07 620.179H2285.59L2213.63 449.993C2217.83 447.715 2221.9 445.976 2225.86 444.776C2229.94 443.577 2233.84 442.977 2237.56 442.977C2242.95 442.977 2247.15 444.357 2250.15 447.115C2253.15 449.754 2255.79 453.891 2258.06 459.528L2286.67 528.969C2289.19 535.206 2291.77 542.402 2294.4 550.557C2297.16 558.713 2299.56 566.449 2301.6 573.765H2303.58C2305.02 568.967 2306.7 563.69 2308.62 557.933C2310.53 552.177 2312.51 546.6 2314.55 541.203C2316.59 535.806 2318.21 531.428 2319.41 528.07L2352.33 445.676Z" fill="white"/>
<path d="M2627.79 669.112C2628.39 663.595 2630.25 658.138 2633.37 652.741C2636.49 647.344 2640.03 643.027 2643.98 639.789C2654.42 646.625 2665.99 652.382 2678.71 657.059C2691.42 661.736 2704.01 664.075 2716.48 664.075C2731 664.075 2742.21 660.957 2750.13 654.72C2758.16 648.364 2762.18 640.208 2762.18 630.254C2762.18 621.859 2759.36 614.423 2753.72 607.946C2748.09 601.35 2739.99 595.833 2729.44 591.396L2685.9 573.046C2670.91 566.689 2658.92 558.534 2649.92 548.58C2640.93 538.625 2636.43 525.972 2636.43 510.621C2636.43 497.548 2639.85 485.794 2646.68 475.36C2653.64 464.806 2663.23 456.471 2675.47 450.354C2687.7 444.118 2701.85 440.999 2717.92 440.999C2732.92 440.999 2747.01 442.918 2760.2 446.756C2773.39 450.594 2784.67 454.852 2794.02 459.529C2793.78 465.046 2792.4 470.563 2789.88 476.08C2787.37 481.477 2784.13 485.914 2780.17 489.392C2770.81 484.715 2760.5 480.757 2749.23 477.519C2738.07 474.161 2727.82 472.482 2718.46 472.482C2705.15 472.482 2694.66 475.72 2686.98 482.196C2679.31 488.673 2675.47 496.708 2675.47 506.303C2675.47 514.219 2678.23 520.695 2683.74 525.732C2689.38 530.769 2696.64 535.147 2705.51 538.865L2748.51 556.675C2758.7 560.993 2767.88 566.33 2776.03 572.686C2784.19 579.043 2790.6 586.478 2795.28 594.994C2799.96 603.509 2802.3 613.164 2802.3 623.958C2802.3 637.63 2799.06 649.923 2792.58 660.837C2786.11 671.751 2776.39 680.386 2763.44 686.743C2750.49 692.979 2734.05 696.097 2714.15 696.097C2699.27 696.097 2684.16 693.699 2668.81 688.901C2653.58 684.104 2639.91 677.508 2627.79 669.112ZM2813.74 477.879C2813.14 475.12 2812.72 472.362 2812.48 469.604C2812.24 466.845 2812.12 464.266 2812.12 461.868C2812.12 459.469 2812.24 456.891 2812.48 454.132C2812.72 451.374 2813.14 448.555 2813.74 445.677H2979.07C2979.78 447.836 2980.32 450.294 2980.68 453.053C2981.04 455.691 2981.22 458.27 2981.22 460.788C2981.22 467.025 2979.48 471.462 2976.01 474.101C2972.53 476.62 2967.13 477.879 2959.82 477.879H2936.07C2933.79 477.879 2930.37 477.819 2925.81 477.699C2921.38 477.579 2917.9 477.519 2915.38 477.519H2877.24C2874.84 477.519 2871.43 477.579 2866.99 477.699C2862.55 477.819 2859.07 477.879 2856.55 477.879H2813.74ZM2877.24 504.144C2877.24 499.227 2877.24 494.849 2877.24 491.012C2877.36 487.054 2877.42 482.556 2877.42 477.519V461.688H2915.38V477.519C2915.38 482.556 2915.38 487.054 2915.38 491.012C2915.38 494.849 2915.38 499.227 2915.38 504.144V691.42C2912.38 691.9 2909.14 692.259 2905.67 692.499C2902.31 692.739 2899.25 692.859 2896.49 692.859C2893.49 692.859 2890.25 692.739 2886.78 692.499C2883.42 692.259 2880.24 691.9 2877.24 691.42V504.144ZM3032.27 568.368C3032.27 579.282 3033.05 590.436 3034.61 601.83C3036.29 613.223 3039.28 623.718 3043.6 633.312C3047.92 642.907 3054.04 650.703 3061.95 656.699C3069.87 662.576 3080.12 665.514 3092.71 665.514C3105.31 665.514 3115.5 662.576 3123.3 656.699C3131.21 650.703 3137.27 642.907 3141.47 633.312C3145.78 623.718 3148.72 613.223 3150.28 601.83C3151.96 590.436 3152.8 579.282 3152.8 568.368C3152.8 557.455 3151.96 546.361 3150.28 535.087C3148.72 523.693 3145.78 513.199 3141.47 503.605C3137.27 494.01 3131.21 486.274 3123.3 480.397C3115.5 474.521 3105.31 471.582 3092.71 471.582C3080.12 471.582 3069.87 474.521 3061.95 480.397C3054.04 486.274 3047.92 494.01 3043.6 503.605C3039.28 513.199 3036.29 523.693 3034.61 535.087C3033.05 546.361 3032.27 557.455 3032.27 568.368ZM2992.15 568.368C2992.15 544.142 2995.75 522.434 3002.94 503.245C3010.26 484.055 3021.35 468.884 3036.23 457.73C3051.1 446.576 3069.93 440.999 3092.71 440.999C3109.86 440.999 3124.74 444.238 3137.33 450.714C3149.92 457.071 3160.36 466.065 3168.63 477.699C3176.91 489.213 3183.02 502.705 3186.98 518.176C3191.06 533.528 3193.1 550.259 3193.1 568.368C3193.1 592.715 3189.44 614.543 3182.12 633.852C3174.93 653.041 3163.89 668.213 3149.02 679.367C3134.27 690.52 3115.5 696.097 3092.71 696.097C3075.56 696.097 3060.63 692.859 3047.92 686.383C3035.33 679.906 3024.89 670.911 3016.62 659.398C3008.46 647.764 3002.34 634.212 2998.27 618.74C2994.19 603.269 2992.15 586.478 2992.15 568.368ZM3405.09 517.997C3405.09 529.03 3403.05 538.985 3398.98 547.86C3395.02 556.615 3389.56 564.051 3382.61 570.167C3375.65 576.284 3367.79 580.722 3359.04 583.48C3365.04 585.519 3370.13 589.357 3374.33 594.994C3378.53 600.631 3381.95 606.927 3384.58 613.883L3400.6 656.16C3403.23 663.236 3405.75 668.693 3408.15 672.53C3410.55 676.248 3413.37 679.487 3416.61 682.245C3414.09 685.963 3410.31 688.841 3405.27 690.88C3400.36 692.919 3395.5 693.939 3390.7 693.939C3383.51 693.939 3378.23 691.96 3374.87 688.002C3371.51 684.044 3368.39 678.167 3365.52 670.372L3347.7 621.799C3344.71 613.523 3340.69 606.567 3335.65 600.93C3330.61 595.293 3322.46 592.475 3311.19 592.475H3266.03V562.792C3271.43 562.552 3277.54 562.312 3284.38 562.072C3291.22 561.832 3297.93 561.652 3304.53 561.532C3311.25 561.412 3316.94 561.352 3321.62 561.352C3333.37 561.352 3342.43 559.194 3348.78 554.876C3355.14 550.558 3359.52 545.101 3361.92 538.505C3364.32 531.789 3365.52 524.953 3365.52 517.997C3365.52 510.681 3364.32 503.725 3361.92 497.128C3359.52 490.412 3355.14 484.955 3348.78 480.757C3342.43 476.56 3333.37 474.461 3321.62 474.461C3318.14 474.461 3314.06 474.461 3309.39 474.461C3304.83 474.461 3300.09 474.461 3295.17 474.461C3290.38 474.341 3285.94 474.221 3281.86 474.101V691.42C3278.86 691.9 3275.63 692.259 3272.15 692.499C3268.79 692.739 3265.55 692.859 3262.43 692.859C3259.79 692.859 3256.68 692.739 3253.08 692.499C3249.6 692.259 3246.48 691.9 3243.72 691.42V447.656L3246.06 445.497C3259.61 445.257 3272.87 445.017 3285.82 444.777C3298.77 444.418 3311.37 444.238 3323.6 444.238C3340.27 444.238 3354.66 447.056 3366.77 452.693C3379.01 458.33 3388.42 466.605 3395.02 477.519C3401.73 488.433 3405.09 501.926 3405.09 517.997ZM3459.63 448.016L3461.97 445.677H3496.87V476.979C3496.87 482.017 3496.93 486.154 3497.05 489.392C3497.17 492.511 3497.23 496.529 3497.23 501.446V641.947C3497.23 645.066 3497.17 648.004 3497.05 650.763C3496.93 653.521 3496.87 656.579 3496.87 659.937V691.78H3481.58C3474.87 691.78 3469.53 689.681 3465.57 685.483C3461.61 681.286 3459.63 675.529 3459.63 668.213V448.016ZM3587.36 551.458C3587.96 553.857 3588.38 556.555 3588.62 559.553C3588.98 562.552 3589.16 565.13 3589.16 567.289C3589.16 569.448 3588.98 572.026 3588.62 575.025C3588.38 577.903 3587.96 580.662 3587.36 583.3H3519.72C3516.96 583.3 3513.48 583.3 3509.29 583.3C3505.09 583.18 3500.71 583.06 3496.15 582.94C3491.72 582.82 3487.7 582.76 3484.1 582.76V551.998C3487.7 551.878 3491.72 551.818 3496.15 551.818C3500.71 551.698 3505.09 551.638 3509.29 551.638C3513.48 551.518 3516.96 551.458 3519.72 551.458H3587.36ZM3606.79 445.677C3607.39 448.555 3607.75 451.314 3607.87 453.952C3607.99 456.471 3608.05 458.81 3608.05 460.968C3608.05 463.127 3607.81 465.826 3607.33 469.064C3606.85 472.182 3606.07 475.18 3604.99 478.059H3519.72C3516.96 478.059 3513.48 478.059 3509.29 478.059C3505.09 478.059 3500.71 477.999 3496.15 477.879C3491.72 477.759 3487.7 477.639 3484.1 477.519V445.677H3606.79ZM3613.81 659.218C3613.81 670.971 3612.01 679.367 3608.41 684.404C3604.93 689.321 3598.28 691.78 3588.44 691.78H3484.1V660.837C3489.86 660.477 3495.55 660.117 3501.19 659.758C3506.83 659.398 3513.3 659.218 3520.62 659.218H3613.81ZM3649.21 611.544C3648.73 609.026 3648.37 606.327 3648.13 603.449C3647.89 600.571 3647.77 597.932 3647.77 595.533C3647.77 593.015 3647.89 590.376 3648.13 587.618C3648.37 584.739 3648.73 581.981 3649.21 579.342H3738.44C3739.16 581.981 3739.64 584.739 3739.88 587.618C3740.12 590.376 3740.24 593.015 3740.24 595.533C3740.24 597.932 3740.12 600.571 3739.88 603.449C3739.64 606.327 3739.16 609.026 3738.44 611.544H3649.21ZM3845.16 445.677C3848.16 445.197 3851.82 444.837 3856.14 444.597C3860.46 444.358 3864.23 444.238 3867.47 444.238C3870.35 444.238 3873.95 444.358 3878.27 444.597C3882.7 444.837 3886.24 445.257 3888.88 445.857L3969.65 689.081C3966.9 690.76 3963.48 691.96 3959.4 692.679C3955.44 693.519 3951.43 693.939 3947.35 693.939C3941.23 693.939 3936.49 692.559 3933.14 689.801C3929.9 687.042 3927.02 681.705 3924.5 673.79L3884.92 548.58C3881.56 538.025 3878.21 526.932 3874.85 515.298C3871.49 503.545 3868.49 492.931 3865.85 483.456H3863.87C3862.67 488.853 3861.24 494.73 3859.56 501.086C3857.88 507.442 3856.2 513.619 3854.52 519.616C3852.84 525.612 3851.34 530.829 3850.02 535.267L3800.19 691.78C3797.91 692.259 3795.33 692.619 3792.45 692.859C3789.58 693.099 3786.64 693.219 3783.64 693.219C3780.4 693.219 3777.1 692.979 3773.74 692.499C3770.51 692.02 3767.63 691.42 3765.11 690.7L3764.03 688.721L3845.16 445.677ZM3840.31 632.053C3839.23 632.053 3836.95 632.053 3833.47 632.053C3830.11 631.933 3826.69 631.873 3823.22 631.873C3819.74 631.753 3817.46 631.693 3816.38 631.693H3798.57L3810.44 600.571H3826.09C3827.17 600.571 3829.21 600.571 3832.21 600.571C3835.33 600.451 3838.39 600.391 3841.39 600.391C3844.38 600.271 3846.42 600.211 3847.5 600.211H3883.48C3884.68 600.211 3886.78 600.271 3889.78 600.391C3892.78 600.391 3895.84 600.451 3898.95 600.571C3902.19 600.571 3904.35 600.571 3905.43 600.571H3921.44L3931.7 631.693H3914.07C3912.99 631.693 3910.65 631.753 3907.05 631.873C3903.57 631.873 3900.09 631.933 3896.62 632.053C3893.14 632.053 3890.86 632.053 3889.78 632.053H3840.31ZM4047.49 691.78H4031.48C4025 691.78 4019.67 689.741 4015.47 685.663C4011.27 681.585 4009.17 675.649 4009.17 667.853V446.396L4011.51 444.238H4026.26C4033.94 444.238 4039.39 446.217 4042.63 450.174C4045.87 454.012 4047.49 460.129 4047.49 468.524V691.78ZM4151.11 658.498C4151.11 671.331 4149.13 680.086 4145.18 684.764C4141.22 689.441 4134.62 691.78 4125.39 691.78H4031.48L4011.69 663.715C4022.84 661.916 4034.48 660.597 4046.59 659.758C4058.7 658.918 4069.68 658.498 4079.51 658.498H4151.11ZM4231.61 691.78H4215.59C4209.12 691.78 4203.78 689.741 4199.58 685.663C4195.39 681.585 4193.29 675.649 4193.29 667.853V446.396L4195.63 444.238H4210.38C4218.05 444.238 4223.51 446.217 4226.75 450.174C4229.99 454.012 4231.61 460.129 4231.61 468.524V691.78ZM4335.23 658.498C4335.23 671.331 4333.25 680.086 4329.29 684.764C4325.33 689.441 4318.74 691.78 4309.5 691.78H4215.59L4195.81 663.715C4206.96 661.916 4218.59 660.597 4230.71 659.758C4242.82 658.918 4253.79 658.498 4263.63 658.498H4335.23Z" fill="#06398A"/>
</g>
<defs>
<clipPath id="clip0_45_2771">
<rect width="4441" height="900" fill="white"/>
</clipPath>
</defs>
</svg>
